<?xml version="1.0" standalone="no"?>
<!DOCTYPE svg PUBLIC "-//W3C//DTD SVG 20010904//EN"
 "http://www.w3.org/TR/2001/REC-SVG-20010904/DTD/svg10.dtd">
<svg version="1.0" xmlns="http://www.w3.org/2000/svg"
 width="316.000000pt" height="290.000000pt" viewBox="0 0 316.000000 290.000000"
 preserveAspectRatio="xMidYMid meet">

<g transform="translate(0.000000,290.000000) scale(0.100000,-0.100000)"
fill="#000000" stroke="none">
<path d="M1517 2887 c-43 -14 -1398 -1074 -1425 -1116 -16 -23 -17 -93 -19
-796 -1 -480 2 -784 8 -807 12 -47 54 -97 96 -114 27 -12 268 -14 1402 -14
946 0 1378 3 1398 11 40 15 73 48 94 94 18 38 19 83 19 818 0 681 -2 783 -15
810 -9 19 -57 63 -112 105 -426 327 -1273 968 -1302 987 -46 29 -96 37 -144
22z m679 -553 c329 -251 636 -484 681 -518 45 -33 82 -64 83 -67 0 -3 -177
-143 -392 -310 -216 -167 -513 -397 -659 -510 -146 -114 -275 -212 -287 -218
-45 -24 -67 -12 -238 122 -143 112 -452 349 -1056 811 -65 49 -118 92 -118 96
0 6 185 153 1100 872 180 142 231 178 256 178 26 0 135 -79 630 -456z m-1173
-1354 c5 -4 -168 -169 -385 -365 -216 -197 -408 -372 -425 -389 l-33 -30 0
717 0 716 418 -321 c229 -176 421 -324 425 -328z m1962 -70 c0 -396 -3 -719
-7 -718 -17 7 -836 783 -832 789 2 4 142 114 311 245 170 131 355 275 413 320
58 45 107 83 110 83 3 1 5 -323 5 -719z m-1683 -143 c196 -152 221 -167 278
-167 65 0 101 21 292 171 99 77 183 139 188 137 5 -2 188 -169 406 -373 218
-203 401 -371 405 -373 5 -2 9 -7 9 -10 0 -4 -587 -7 -1305 -7 -718 0 -1305 1
-1305 3 0 1 17 17 37 35 55 47 559 505 687 624 61 57 116 101 123 98 6 -2 89
-64 185 -138z"/>
<path d="M1205 1977 c-160 -53 -250 -203 -224 -371 18 -110 42 -142 318 -418
196 -197 263 -258 281 -258 19 0 85 60 281 258 295 296 310 317 317 456 3 65
0 92 -17 137 -29 75 -88 141 -159 176 -74 36 -172 39 -244 6 -65 -30 -134 -96
-154 -149 -9 -24 -20 -44 -25 -44 -4 0 -13 15 -19 34 -16 51 -84 121 -143 150
-63 31 -156 41 -212 23z"/>
</g>
</svg>
